<svg width="97" height="66" viewBox="0 0 97 66" fill="none" xmlns="http://www.w3.org/2000/svg">
<path d="M85.4563 0.346905H11.2553C5.33231 0.346905 0.513306 5.16491 0.513306 11.0889V46.2219C0.513306 52.1459 5.33231 56.9649 11.2553 56.9649H40.9663V52.6139H11.2553C7.73031 52.6139 4.8633 49.7459 4.8633 46.2219V11.0889C4.8633 7.56591 7.73031 4.69791 11.2553 4.69791H85.4563C88.9793 4.69791 91.8483 7.56591 91.8483 11.0889V46.2219C91.8483 49.7459 88.9793 52.6139 85.4563 52.6139H73.6303V56.9649H85.4563C91.3793 56.9649 96.1983 52.1459 96.1983 46.2219V11.0889C96.1983 5.16491 91.3793 0.346905 85.4563 0.346905Z" fill="#A81A49"/>
<path d="M44.5266 64.2522L39.2316 55.9632C38.5856 54.9502 38.8816 53.6052 39.8946 52.9582C40.9076 52.3122 42.2526 52.6072 42.8986 53.6212L45.8236 58.2002C46.4756 59.2222 47.8366 59.5132 48.8486 58.8502L62.9556 49.6082C63.9606 48.9502 65.3086 49.2312 65.9666 50.2362C66.6256 51.2412 66.3436 52.5902 65.3386 53.2482L47.5516 64.9012C46.5396 65.5642 45.1786 65.2732 44.5266 64.2522Z" fill="#A81A49"/>
<path d="M71.4192 54.7893C71.4192 55.9903 72.3932 56.9653 73.5942 56.9653C74.7962 56.9653 75.7702 55.9903 75.7702 54.7893C75.7702 53.5873 74.7962 52.6133 73.5942 52.6133C72.3932 52.6133 71.4192 53.5873 71.4192 54.7893Z" fill="#A81A49"/>
<path d="M17.9895 35.9026C17.4585 35.5696 17.0275 34.9726 17.0275 34.1766C17.0275 33.0476 17.8895 32.1846 19.0185 32.1846C19.3845 32.1846 19.7485 32.2846 20.0135 32.4506C21.7065 33.5126 23.4005 34.0446 24.8275 34.0446C26.2875 34.0446 26.9515 33.5126 26.9515 32.7156V32.6496C26.9515 31.5546 25.2255 31.1886 23.2675 30.5916C20.7785 29.8616 17.9575 28.6996 17.9575 25.2486V25.1826C17.9575 21.5646 20.8785 19.5396 24.4625 19.5396C26.3205 19.5396 28.2455 20.0376 29.9705 20.9006C30.7025 21.2656 31.1665 21.9286 31.1665 22.7936C31.1665 23.9206 30.2695 24.7826 29.1405 24.7826C28.7765 24.7826 28.5445 24.7166 28.2135 24.5506C26.7855 23.8546 25.4245 23.4236 24.3615 23.4236C23.1355 23.4236 22.5035 23.9546 22.5035 24.6516V24.7166C22.5035 25.7136 24.1965 26.1776 26.1215 26.8406C28.6095 27.6716 31.4985 28.8666 31.4985 32.1186V32.1846C31.4985 36.1336 28.5445 37.9266 24.6945 37.9266C22.5035 37.9266 20.1465 37.2966 17.9895 35.9026Z" fill="#A81A49"/>
<path d="M35.1135 22.1282C35.1135 20.7342 36.2435 19.6072 37.6355 19.6072C39.0295 19.6072 40.1585 20.7342 40.1585 22.1282V22.3272C41.3195 20.8332 42.8475 19.4732 45.4015 19.4732C47.7255 19.4732 49.4855 20.5022 50.4145 22.2942C51.9735 20.4692 53.8335 19.4732 56.2565 19.4732C60.0055 19.4732 62.2635 21.7312 62.2635 26.0112V35.2722C62.2635 36.6652 61.1345 37.7932 59.7405 37.7932C58.3465 37.7932 57.2185 36.6652 57.2185 35.2722V27.6712C57.2185 25.2812 56.1565 24.0532 54.2645 24.0532C52.3725 24.0532 51.2115 25.2812 51.2115 27.6712V35.2722C51.2115 36.6652 50.0825 37.7932 48.6885 37.7932C47.2945 37.7932 46.1665 36.6652 46.1665 35.2722V27.6712C46.1665 25.2812 45.1045 24.0532 43.2125 24.0532C41.3195 24.0532 40.1585 25.2812 40.1585 27.6712V35.2722C40.1585 36.6652 39.0295 37.7932 37.6355 37.7932C36.2435 37.7932 35.1135 36.6652 35.1135 35.2722V22.1282Z" fill="#A81A49"/>
<path d="M66.1741 35.9026C65.6431 35.5696 65.2131 34.9726 65.2131 34.1766C65.2131 33.0476 66.0751 32.1846 67.2041 32.1846C67.5691 32.1846 67.9341 32.2846 68.1991 32.4506C69.8921 33.5126 71.5851 34.0446 73.0121 34.0446C74.4721 34.0446 75.1361 33.5126 75.1361 32.7156V32.6496C75.1361 31.5546 73.4101 31.1886 71.4521 30.5916C68.9631 29.8616 66.1421 28.6996 66.1421 25.2486V25.1826C66.1421 21.5646 69.0631 19.5396 72.6481 19.5396C74.5061 19.5396 76.4301 20.0376 78.1561 20.9006C78.8871 21.2656 79.3511 21.9286 79.3511 22.7936C79.3511 23.9206 78.4551 24.7826 77.3261 24.7826C76.9611 24.7826 76.7291 24.7166 76.3981 24.5506C74.9701 23.8546 73.6091 23.4236 72.5471 23.4236C71.3201 23.4236 70.6881 23.9546 70.6881 24.6516V24.7166C70.6881 25.7136 72.3821 26.1776 74.3061 26.8406C76.7951 27.6716 79.6841 28.8666 79.6841 32.1186V32.1846C79.6841 36.1336 76.7291 37.9266 72.8791 37.9266C70.6881 37.9266 68.3321 37.2966 66.1741 35.9026Z" fill="#A81A49"/>
</svg>
